<svg width="198" height="59" viewBox="0 0 198 59" fill="none" xmlns="http://www.w3.org/2000/svg">
<g clip-path="url(#clip0)">
<path d="M190.373 58.6527H7.65795C3.86145 58.6527 0.77124 55.5518 0.77124 51.7558V7.25189C0.77124 3.45447 3.86145 0.365234 7.65795 0.365234H190.373C194.168 0.365234 197.368 3.45447 197.368 7.25189V51.7558C197.368 55.5518 194.168 58.6527 190.373 58.6527Z" fill="#A6A6A6"/>
<path d="M195.958 51.7573C195.958 54.8407 193.462 57.3383 190.375 57.3383H7.65801C4.57217 57.3383 2.06738 54.8407 2.06738 51.7573V7.25042C2.06738 4.16847 4.57217 1.66211 7.65801 1.66211H190.373C193.462 1.66211 195.957 4.16847 195.957 7.25042L195.958 51.7573Z" fill="black"/>
<path d="M44.6457 29.1939C44.6035 24.4974 48.4888 22.2125 48.6665 22.1061C46.4661 18.8959 43.0555 18.4573 41.857 18.4224C38.9925 18.1207 36.2139 20.1375 34.7547 20.1375C33.2664 20.1375 31.0194 18.4515 28.5976 18.501C25.4812 18.5491 22.5657 20.3546 20.9667 23.1582C17.6668 28.8748 20.1279 37.2754 23.2895 41.8962C24.871 44.1592 26.719 46.6859 29.1379 46.597C31.5043 46.4994 32.3883 45.0874 35.244 45.0874C38.0736 45.0874 38.9036 46.597 41.3706 46.5402C43.9103 46.4994 45.5093 44.267 47.0355 41.9836C48.8631 39.3898 49.597 36.8354 49.6262 36.7042C49.5665 36.6838 44.6938 34.823 44.6457 29.1939Z" fill="white"/>
<path d="M39.9857 15.3827C41.2585 13.79 42.1293 11.6232 41.8876 9.42432C40.0454 9.50592 37.7416 10.6994 36.4149 12.2571C35.2412 13.6298 34.1926 15.8796 34.4635 17.9955C36.5329 18.1499 38.6576 16.9507 39.9857 15.3827Z" fill="white"/>
<path d="M78.8929 46.2738H75.5858L73.7742 40.5777H67.4772L65.7516 46.2738H62.5317L68.7704 26.8816H72.6237L78.8929 46.2738ZM73.2281 38.1879L71.5897 33.1242C71.4164 32.6069 71.0917 31.3887 70.6126 29.471H70.5543C70.3636 30.2958 70.0563 31.514 69.634 33.1242L68.0248 38.1879H73.2281Z" fill="white"/>
<path d="M94.9367 39.1089C94.9367 41.487 94.2945 43.3668 93.01 44.7467C91.8596 45.9752 90.431 46.5886 88.7257 46.5886C86.8849 46.5886 85.5626 45.9271 84.7573 44.6039H84.6991V51.97H81.5943V36.8925C81.5943 35.3974 81.555 33.863 81.4792 32.2893H84.2098L84.3831 34.5056H84.4413C85.4767 32.8357 87.048 32.0022 89.1567 32.0022C90.8052 32.0022 92.1814 32.6536 93.2823 33.9577C94.3862 35.2634 94.9367 36.9799 94.9367 39.1089ZM91.7736 39.2226C91.7736 37.8615 91.4678 36.7395 90.8533 35.8565C90.1819 34.9355 89.2805 34.475 88.1504 34.475C87.3844 34.475 86.6883 34.7315 86.0665 35.2371C85.4432 35.7472 85.0355 36.4131 84.8447 37.2379C84.7486 37.6226 84.7005 37.9373 84.7005 38.185V40.5165C84.7005 41.5336 85.0122 42.3919 85.6355 43.0928C86.2587 43.7937 87.0684 44.1435 88.0645 44.1435C89.2339 44.1435 90.1441 43.6917 90.795 42.7912C91.4474 41.8892 91.7736 40.7001 91.7736 39.2226Z" fill="white"/>
<path d="M111.009 39.1089C111.009 41.487 110.367 43.3668 109.081 44.7467C107.932 45.9752 106.504 46.5886 104.798 46.5886C102.958 46.5886 101.635 45.9271 100.832 44.6039H100.773V51.97H97.6685V36.8925C97.6685 35.3974 97.6292 33.863 97.5535 32.2893H100.284L100.457 34.5056H100.516C101.549 32.8357 103.121 32.0022 105.231 32.0022C106.878 32.0022 108.254 32.6536 109.358 33.9577C110.457 35.2634 111.009 36.9799 111.009 39.1089ZM107.846 39.2226C107.846 37.8615 107.539 36.7395 106.925 35.8565C106.253 34.9355 105.355 34.475 104.223 34.475C103.456 34.475 102.761 34.7315 102.138 35.2371C101.515 35.7472 101.108 36.4131 100.917 37.2379C100.823 37.6226 100.773 37.9373 100.773 38.185V40.5165C100.773 41.5336 101.085 42.3919 101.705 43.0928C102.329 43.7923 103.138 44.1435 104.137 44.1435C105.307 44.1435 106.217 43.6917 106.868 42.7912C107.52 41.8892 107.846 40.7001 107.846 39.2226Z" fill="white"/>
<path d="M128.98 40.8344C128.98 42.4839 128.408 43.826 127.259 44.862C125.996 45.9942 124.238 46.5596 121.98 46.5596C119.894 46.5596 118.223 46.1575 116.957 45.3516L117.676 42.7622C119.04 43.587 120.535 44.0008 122.165 44.0008C123.334 44.0008 124.244 43.7356 124.898 43.2081C125.549 42.6806 125.874 41.9724 125.874 41.0894C125.874 40.3025 125.606 39.6395 125.068 39.1018C124.534 38.5641 123.641 38.0642 122.395 37.6023C119.002 36.336 117.307 34.481 117.307 32.0417C117.307 30.4475 117.901 29.1404 119.09 28.1233C120.276 27.1047 121.857 26.5962 123.835 26.5962C125.599 26.5962 127.064 26.9037 128.233 27.5171L127.457 30.0497C126.365 29.4552 125.13 29.1579 123.748 29.1579C122.655 29.1579 121.802 29.4275 121.19 29.9637C120.673 30.4432 120.414 31.0275 120.414 31.7197C120.414 32.4861 120.71 33.12 121.304 33.6184C121.821 34.0788 122.76 34.5772 124.123 35.1149C125.791 35.7867 127.015 36.5721 127.803 37.4726C128.588 38.3703 128.98 39.4937 128.98 40.8344Z" fill="white"/>
<path d="M139.245 34.621H135.823V41.4101C135.823 43.1368 136.426 43.9995 137.635 43.9995C138.19 43.9995 138.65 43.9514 139.014 43.8552L139.1 46.2144C138.488 46.4432 137.683 46.5583 136.685 46.5583C135.459 46.5583 134.501 46.1838 133.809 45.4363C133.12 44.6873 132.774 43.4312 132.774 41.6665V34.6181H130.735V32.2866H132.774V29.7264L135.823 28.8054V32.2866H139.245V34.621Z" fill="white"/>
<path d="M154.686 39.1657C154.686 41.3151 154.072 43.0797 152.845 44.4597C151.559 45.8804 149.853 46.5886 147.725 46.5886C145.675 46.5886 144.042 45.9081 142.825 44.5471C141.607 43.1861 140.999 41.4681 140.999 39.3974C140.999 37.2306 141.625 35.4557 142.881 34.0758C144.135 32.6944 145.828 32.0037 147.955 32.0037C150.006 32.0037 151.656 32.6842 152.901 34.0466C154.092 35.3683 154.686 37.0747 154.686 39.1657ZM151.465 39.2663C151.465 37.9767 151.19 36.8707 150.632 35.9483C149.981 34.8321 149.05 34.2754 147.844 34.2754C146.596 34.2754 145.648 34.8335 144.997 35.9483C144.44 36.8721 144.164 37.9956 144.164 39.3246C144.164 40.6142 144.44 41.7202 144.997 42.6411C145.669 43.7573 146.607 44.314 147.817 44.314C149.002 44.314 149.933 43.7457 150.604 42.612C151.176 41.6721 151.465 40.5544 151.465 39.2663Z" fill="white"/>
<path d="M164.778 35.0215C164.471 34.9647 164.143 34.9355 163.799 34.9355C162.707 34.9355 161.863 35.3479 161.268 36.1741C160.751 36.9027 160.492 37.8237 160.492 38.9355V46.2724H157.389L157.418 36.6929C157.418 35.0812 157.379 33.6138 157.302 32.2907H160.006L160.119 34.9661H160.205C160.533 34.0466 161.05 33.3064 161.758 32.7512C162.449 32.2514 163.197 32.0022 164.002 32.0022C164.289 32.0022 164.548 32.0226 164.778 32.059V35.0215Z" fill="white"/>
<path d="M178.663 38.6194C178.663 39.176 178.627 39.6452 178.55 40.0285H169.236C169.272 41.4099 169.722 42.4663 170.587 43.1949C171.372 43.8463 172.387 44.1727 173.634 44.1727C175.013 44.1727 176.271 43.9527 177.402 43.5111L177.889 45.6678C176.566 46.2448 175.005 46.5319 173.204 46.5319C171.037 46.5319 169.336 45.8936 168.098 44.6186C166.863 43.3436 166.244 41.6314 166.244 39.4835C166.244 37.3749 166.82 35.619 167.972 34.2187C169.177 32.7236 170.807 31.9761 172.857 31.9761C174.871 31.9761 176.396 32.7236 177.431 34.2187C178.251 35.4063 178.663 36.8751 178.663 38.6194ZM175.703 37.8136C175.723 36.8926 175.521 36.097 175.1 35.4252C174.563 34.5611 173.737 34.1298 172.626 34.1298C171.611 34.1298 170.785 34.5509 170.154 35.3961C169.638 36.0679 169.33 36.8737 169.236 37.8121H175.703V37.8136Z" fill="white"/>
<path d="M72.2012 14.9504C72.2012 16.6655 71.6872 17.9566 70.6605 18.8236C69.7096 19.6236 68.3581 20.0243 66.6077 20.0243C65.7398 20.0243 64.9971 19.9864 64.3752 19.9106V10.5395C65.1864 10.4083 66.0602 10.3413 67.0038 10.3413C68.6712 10.3413 69.928 10.7041 70.7756 11.4298C71.725 12.2502 72.2012 13.4233 72.2012 14.9504ZM70.5921 14.9926C70.5921 13.8808 70.2979 13.0284 69.7096 12.4338C69.1212 11.8408 68.262 11.5435 67.1305 11.5435C66.6499 11.5435 66.2407 11.5755 65.9014 11.6426V18.7668C66.0893 18.7959 66.433 18.809 66.9325 18.809C68.1004 18.809 69.0018 18.4841 69.6368 17.8342C70.2717 17.1843 70.5921 16.2371 70.5921 14.9926Z" fill="white"/>
<path d="M80.7336 16.4483C80.7336 17.5048 80.4322 18.3703 79.8293 19.0494C79.1972 19.7474 78.3599 20.0956 77.3143 20.0956C76.3066 20.0956 75.5041 19.762 74.9056 19.0916C74.3085 18.4228 74.01 17.5791 74.01 16.562C74.01 15.4982 74.3173 14.6254 74.9347 13.9478C75.5522 13.2702 76.3823 12.9307 77.4279 12.9307C78.4356 12.9307 79.2453 13.2644 79.8584 13.9332C80.4409 14.5831 80.7336 15.4225 80.7336 16.4483ZM79.1506 16.4979C79.1506 15.864 79.0138 15.3204 78.7414 14.8673C78.4211 14.3194 77.9652 14.0454 77.3725 14.0454C76.7595 14.0454 76.2934 14.3194 75.9731 14.8673C75.6993 15.3204 75.5639 15.8727 75.5639 16.5255C75.5639 17.1594 75.7007 17.7029 75.9731 18.1561C76.3036 18.704 76.7638 18.978 77.358 18.978C77.9405 18.978 78.3978 18.6997 78.7269 18.1416C79.0094 17.6796 79.1506 17.1317 79.1506 16.4979Z" fill="white"/>
<path d="M92.1741 13.0708L90.0261 19.94H88.6281L87.7383 16.9571C87.5126 16.2125 87.3291 15.4722 87.1864 14.7378H87.1587C87.0262 15.4926 86.8427 16.2314 86.6068 16.9571L85.6617 19.94H84.2476L82.2278 13.0708H83.7962L84.5724 16.3364C84.7602 17.1087 84.9146 17.8445 85.0384 18.5411H85.0661C85.1796 17.9669 85.3675 17.2354 85.6325 16.3509L86.6068 13.0723H87.8504L88.7839 16.281C89.0096 17.0635 89.1931 17.8169 89.3344 18.5425H89.3766C89.48 17.8358 89.6358 17.0824 89.8426 16.281L90.6756 13.0723H92.1741V13.0708Z" fill="white"/>
<path d="M100.086 19.9397H98.5597V16.0053C98.5597 14.7929 98.0995 14.1867 97.1763 14.1867C96.7234 14.1867 96.3579 14.3529 96.0739 14.6866C95.7928 15.0202 95.6501 15.4137 95.6501 15.864V19.9383H94.1239V15.0334C94.1239 14.4301 94.105 13.7758 94.0686 13.0676H95.4098L95.4812 14.1416H95.5234C95.7011 13.8079 95.9661 13.5325 96.3142 13.3124C96.7277 13.056 97.1908 12.9263 97.6976 12.9263C98.3384 12.9263 98.8714 13.1332 99.2951 13.5485C99.8223 14.057 100.086 14.8162 100.086 15.8246V19.9397Z" fill="white"/>
<path d="M104.294 19.9398H102.77V9.9187H104.294V19.9398Z" fill="white"/>
<path d="M113.28 16.4483C113.28 17.5048 112.978 18.3703 112.375 19.0494C111.743 19.7474 110.905 20.0956 109.86 20.0956C108.851 20.0956 108.049 19.762 107.452 19.0916C106.855 18.4228 106.556 17.5791 106.556 16.562C106.556 15.4982 106.863 14.6254 107.481 13.9478C108.098 13.2702 108.928 12.9307 109.973 12.9307C110.982 12.9307 111.79 13.2644 112.405 13.9332C112.987 14.5831 113.28 15.4225 113.28 16.4483ZM111.695 16.4979C111.695 15.864 111.558 15.3204 111.286 14.8673C110.967 14.3194 110.51 14.0454 109.919 14.0454C109.304 14.0454 108.838 14.3194 108.519 14.8673C108.245 15.3204 108.11 15.8727 108.11 16.5255C108.11 17.1594 108.247 17.7029 108.519 18.1561C108.85 18.704 109.31 18.978 109.904 18.978C110.487 18.978 110.942 18.6997 111.272 18.1416C111.556 17.6796 111.695 17.1317 111.695 16.4979Z" fill="white"/>
<path d="M120.666 19.9397H119.296L119.182 19.1485H119.14C118.671 19.7794 118.003 20.0956 117.135 20.0956C116.487 20.0956 115.962 19.8873 115.568 19.4734C115.209 19.0975 115.03 18.6297 115.03 18.0745C115.03 17.2352 115.38 16.5955 116.083 16.1525C116.785 15.7095 117.772 15.4924 119.044 15.5026V15.3744C119.044 14.4695 118.569 14.0177 117.618 14.0177C116.941 14.0177 116.344 14.1882 115.828 14.5263L115.518 13.5237C116.156 13.1288 116.944 12.9307 117.873 12.9307C119.667 12.9307 120.567 13.8778 120.567 15.7722V18.3019C120.567 18.9882 120.601 19.5346 120.666 19.9397ZM119.082 17.5791V16.5197C117.398 16.4906 116.556 16.9525 116.556 17.904C116.556 18.2625 116.653 18.5306 116.849 18.7099C117.046 18.8891 117.296 18.978 117.595 18.978C117.93 18.978 118.243 18.8716 118.528 18.6603C118.815 18.4476 118.991 18.178 119.057 17.8472C119.073 17.7729 119.082 17.6825 119.082 17.5791Z" fill="white"/>
<path d="M129.338 19.9398H127.984L127.912 18.8367H127.87C127.438 19.676 126.701 20.0957 125.665 20.0957C124.838 20.0957 124.149 19.7707 123.603 19.1208C123.057 18.4709 122.785 17.6272 122.785 16.5912C122.785 15.4793 123.081 14.5788 123.675 13.891C124.25 13.2498 124.955 12.9292 125.794 12.9292C126.715 12.9292 127.361 13.2396 127.727 13.8618H127.757V9.9187H129.284V18.0891C129.284 18.758 129.302 19.3744 129.338 19.9398ZM127.757 17.0429V15.8975C127.757 15.6994 127.742 15.5391 127.714 15.4167C127.628 15.0495 127.444 14.7405 127.162 14.4914C126.878 14.2422 126.536 14.1169 126.142 14.1169C125.572 14.1169 125.127 14.3427 124.799 14.7959C124.474 15.2491 124.31 15.8276 124.31 16.5343C124.31 17.2134 124.465 17.7642 124.779 18.1882C125.109 18.64 125.555 18.8658 126.112 18.8658C126.613 18.8658 127.014 18.6778 127.318 18.3004C127.612 17.9522 127.757 17.5325 127.757 17.0429Z" fill="white"/>
<path d="M142.391 16.4483C142.391 17.5048 142.089 18.3703 141.486 19.0494C140.854 19.7474 140.018 20.0956 138.971 20.0956C137.965 20.0956 137.163 19.762 136.563 19.0916C135.966 18.4228 135.667 17.5791 135.667 16.562C135.667 15.4982 135.974 14.6254 136.592 13.9478C137.209 13.2702 138.039 12.9307 139.086 12.9307C140.093 12.9307 140.904 13.2644 141.515 13.9332C142.098 14.5831 142.391 15.4225 142.391 16.4483ZM140.809 16.4979C140.809 15.864 140.672 15.3204 140.4 14.8673C140.078 14.3194 139.624 14.0454 139.03 14.0454C138.418 14.0454 137.952 14.3194 137.63 14.8673C137.356 15.3204 137.221 15.8727 137.221 16.5255C137.221 17.1594 137.358 17.7029 137.63 18.1561C137.961 18.704 138.421 18.978 139.015 18.978C139.597 18.978 140.056 18.6997 140.385 18.1416C140.666 17.6796 140.809 17.1317 140.809 16.4979Z" fill="white"/>
<path d="M150.597 19.9397H149.072V16.0053C149.072 14.7929 148.612 14.1867 147.687 14.1867C147.234 14.1867 146.869 14.3529 146.586 14.6866C146.304 15.0202 146.162 15.4137 146.162 15.864V19.9383H144.635V15.0334C144.635 14.4301 144.617 13.7758 144.581 13.0676H145.921L145.992 14.1416H146.034C146.213 13.8079 146.478 13.5325 146.825 13.3124C147.24 13.056 147.702 12.9263 148.21 12.9263C148.849 12.9263 149.382 13.1332 149.806 13.5485C150.335 14.057 150.597 14.8162 150.597 15.8246V19.9397Z" fill="white"/>
<path d="M160.868 14.2142H159.187V17.5512C159.187 18.3993 159.486 18.8233 160.077 18.8233C160.351 18.8233 160.578 18.8 160.757 18.7519L160.796 19.9104C160.495 20.024 160.099 20.0809 159.611 20.0809C159.008 20.0809 158.539 19.8973 158.2 19.5301C157.859 19.1628 157.69 18.545 157.69 17.678V14.2142H156.687V13.0704H157.69V11.8113L159.186 11.3596V13.0689H160.866V14.2142H160.868Z" fill="white"/>
<path d="M168.947 19.9398H167.419V16.0345C167.419 14.8032 166.959 14.1868 166.037 14.1868C165.33 14.1868 164.846 14.5438 164.581 15.2578C164.536 15.4079 164.51 15.5915 164.51 15.8072V19.9383H162.985V9.9187H164.51V14.0586H164.539C165.02 13.3052 165.708 12.9292 166.601 12.9292C167.233 12.9292 167.756 13.1362 168.171 13.5515C168.688 14.0688 168.947 14.8382 168.947 15.8553V19.9398Z" fill="white"/>
<path d="M177.281 16.1804C177.281 16.4543 177.261 16.6846 177.225 16.8725H172.648C172.668 17.5516 172.886 18.0689 173.31 18.4273C173.698 18.7479 174.197 18.9082 174.809 18.9082C175.486 18.9082 176.103 18.8004 176.66 18.5833L176.898 19.6441C176.248 19.9268 175.482 20.0681 174.595 20.0681C173.532 20.0681 172.694 19.7548 172.088 19.1283C171.48 18.5017 171.178 17.6609 171.178 16.6059C171.178 15.5698 171.459 14.7071 172.026 14.0194C172.617 13.2849 173.417 12.9177 174.426 12.9177C175.413 12.9177 176.163 13.2849 176.67 14.0194C177.079 14.6022 177.281 15.3235 177.281 16.1804ZM175.825 15.7855C175.837 15.3323 175.736 14.9418 175.53 14.6124C175.265 14.1884 174.861 13.9756 174.315 13.9756C173.817 13.9756 173.411 14.1826 173.101 14.5979C172.847 14.9286 172.697 15.3235 172.648 15.7855H175.825Z" fill="white"/>
</g>
<defs>
<clipPath id="clip0">
<rect width="196.597" height="58.2874" fill="white" transform="translate(0.77124 0.365234)"/>
</clipPath>
</defs>
</svg>
