<svg width="198" height="59" viewBox="0 0 198 59" fill="none" xmlns="http://www.w3.org/2000/svg">
<g clip-path="url(#clip0)">
<path d="M190.234 58.5417H7.81601C3.80464 58.5417 0.519287 55.2932 0.519287 51.3268V8.03696C0.519287 4.07053 3.80464 0.821993 7.81601 0.821993H190.234C194.246 0.821993 197.531 4.07053 197.531 8.03696V51.3268C197.531 55.2932 194.246 58.5417 190.234 58.5417Z" fill="black"/>
<path d="M190.234 1.97819C193.613 1.97819 196.362 4.69643 196.362 8.03696V51.3268C196.362 54.6673 193.613 57.3855 190.234 57.3855H7.81601C4.43763 57.3855 1.68859 54.6673 1.68859 51.3268V8.03696C1.68859 4.69643 4.43763 1.97819 7.81601 1.97819H190.234ZM190.234 0.821993H7.81601C3.80464 0.821993 0.519287 4.07053 0.519287 8.03696V51.3268C0.519287 55.2932 3.80464 58.5417 7.81601 58.5417H190.234C194.246 58.5417 197.531 55.2932 197.531 51.3268V8.03696C197.531 4.07053 194.246 0.821993 190.234 0.821993Z" fill="#A6A6A6"/>
<path d="M69.7176 15.6035C69.7176 16.8084 69.3528 17.7734 68.6341 18.4931C67.8077 19.3463 66.7314 19.7756 65.4126 19.7756C64.1521 19.7756 63.0758 19.3391 62.1929 18.4787C61.3081 17.6057 60.8667 16.5343 60.8667 15.2518C60.8667 13.9694 61.3081 12.8979 62.1929 12.0321C63.0758 11.1645 64.1521 10.728 65.4126 10.728C66.0401 10.728 66.6384 10.8561 67.2094 11.0942C67.7785 11.3341 68.2419 11.6588 68.5775 12.0592L67.815 12.8204C67.2294 12.1368 66.4323 11.7995 65.4126 11.7995C64.4932 11.7995 63.696 12.1169 63.0192 12.7572C62.3498 13.3994 62.0141 14.2309 62.0141 15.2518C62.0141 16.2727 62.3498 17.1115 63.0192 17.7536C63.696 18.3867 64.4932 18.7114 65.4126 18.7114C66.3885 18.7114 67.2094 18.3867 67.857 17.7464C68.2838 17.3225 68.5264 16.7381 68.5903 15.9913H65.4126V14.9488H69.652C69.703 15.1743 69.7176 15.3925 69.7176 15.6035Z" fill="white" stroke="white" strokeWidth="0.16" strokeMiterlimit="10"/>
<path d="M76.4435 11.9889H72.4613V14.7306H76.0513V15.7732H72.4613V18.5149H76.4435V19.5773H71.334V10.9265H76.4435V11.9889Z" fill="white" stroke="white" strokeWidth="0.16" strokeMiterlimit="10"/>
<path d="M81.19 19.5773H80.0627V11.9889H77.6201V10.9265H83.6344V11.9889H81.19V19.5773Z" fill="white" stroke="white" strokeWidth="0.16" stroke-miterlimit="10"/>
<path d="M87.9868 19.5773V10.9265H89.1123V19.5773H87.9868Z" fill="white" stroke="white" strokeWidth="0.16" stroke-miterlimit="10"/>
<path d="M94.1017 19.5773H92.9834V11.9889H90.5317V10.9265H96.5534V11.9889H94.1017V19.5773Z" fill="white" stroke="white" strokeWidth="0.16" strokeMiterlimit="10"/>
<path d="M107.94 18.4643C107.077 19.3391 106.008 19.7756 104.733 19.7756C103.451 19.7756 102.382 19.3391 101.519 18.4643C100.658 17.5913 100.229 16.5198 100.229 15.2518C100.229 13.9838 100.658 12.9124 101.519 12.0393C102.382 11.1645 103.451 10.728 104.733 10.728C106.001 10.728 107.07 11.1645 107.933 12.0466C108.801 12.9268 109.23 13.991 109.23 15.2518C109.23 16.5198 108.801 17.5913 107.94 18.4643ZM102.352 17.7392C103.002 18.3867 103.792 18.7114 104.733 18.7114C105.667 18.7114 106.464 18.3867 107.106 17.7392C107.754 17.0916 108.082 16.2601 108.082 15.2518C108.082 14.2435 107.754 13.412 107.106 12.7645C106.464 12.1169 105.667 11.7922 104.733 11.7922C103.792 11.7922 103.002 12.1169 102.352 12.7645C101.705 13.412 101.376 14.2435 101.376 15.2518C101.376 16.2601 101.705 17.0916 102.352 17.7392Z" fill="white" stroke="white" strokeWidth="0.16" stroke-miterlimit="10"/>
<path d="M110.811 19.5773V10.9265H112.179L116.433 17.6545H116.482L116.433 15.9914V10.9265H117.559V19.5773H116.384L111.929 12.5174H111.88L111.929 14.1877V19.5773H110.811Z" fill="white" stroke="white" strokeWidth="0.16" strokeMiterlimit="10"/>
<path d="M99.9516 32.2107C96.524 32.2107 93.7238 34.7901 93.7238 38.3488C93.7238 41.8788 96.524 44.4852 99.9516 44.4852C103.387 44.4852 106.187 41.8788 106.187 38.3488C106.187 34.7901 103.387 32.2107 99.9516 32.2107ZM99.9516 42.0682C98.0709 42.0682 96.4528 40.5332 96.4528 38.3488C96.4528 36.1356 98.0709 34.6277 99.9516 34.6277C101.832 34.6277 103.458 36.1356 103.458 38.3488C103.458 40.5332 101.832 42.0682 99.9516 42.0682ZM86.3633 32.2107C82.9283 32.2107 80.1355 34.7901 80.1355 38.3488C80.1355 41.8788 82.9283 44.4852 86.3633 44.4852C89.7964 44.4852 92.591 41.8788 92.591 38.3488C92.591 34.7901 89.7964 32.2107 86.3633 32.2107ZM86.3633 42.0682C84.4807 42.0682 82.8572 40.5332 82.8572 38.3488C82.8572 36.1356 84.4807 34.6277 86.3633 34.6277C88.244 34.6277 89.8621 36.1356 89.8621 38.3488C89.8621 40.5332 88.244 42.0682 86.3633 42.0682ZM70.1937 34.092V36.7002H76.4926C76.3084 38.1576 75.8159 39.2291 75.0606 39.9758C74.1413 40.8777 72.7093 41.8788 70.1937 41.8788C66.3173 41.8788 63.2819 38.7853 63.2819 34.9524C63.2819 31.1194 66.3173 28.026 70.1937 28.026C72.2897 28.026 73.8147 28.8359 74.9402 29.8857L76.7991 28.0477C75.2248 26.5614 73.1307 25.4196 70.1937 25.4196C64.8781 25.4196 60.4106 29.6963 60.4106 34.9524C60.4106 40.2085 64.8781 44.4852 70.1937 44.4852C73.0668 44.4852 75.2248 43.5544 76.9213 41.8084C78.6598 40.0895 79.2015 37.6724 79.2015 35.7208C79.2015 35.1147 79.1505 34.5574 79.0593 34.092H70.1937ZM136.313 36.114C135.8 34.7414 134.219 32.2107 130.997 32.2107C127.805 32.2107 125.147 34.6981 125.147 38.3488C125.147 41.7868 127.778 44.4852 131.304 44.4852C134.155 44.4852 135.8 42.7662 136.477 41.7651L134.361 40.3708C133.655 41.3918 132.694 42.0682 131.304 42.0682C129.923 42.0682 128.932 41.4423 128.298 40.2085L136.599 36.812L136.313 36.114ZM127.849 38.1576C127.778 35.7911 129.708 34.579 131.09 34.579C132.174 34.579 133.093 35.1147 133.4 35.8813L127.849 38.1576ZM121.101 44.1118H123.83V26.0744H121.101V44.1118ZM116.632 33.5779H116.541C115.928 32.8601 114.758 32.2107 113.277 32.2107C110.169 32.2107 107.327 34.9091 107.327 38.3687C107.327 41.8084 110.169 44.4852 113.277 44.4852C114.758 44.4852 115.928 43.8304 116.541 43.0909H116.632V43.9711C116.632 46.3178 115.364 47.5786 113.319 47.5786C111.652 47.5786 110.618 46.3881 110.191 45.387L107.817 46.3665C108.502 47.9935 110.313 49.9956 113.319 49.9956C116.519 49.9956 119.219 48.1341 119.219 43.6049V32.5841H116.632V33.5779ZM113.511 42.0682C111.63 42.0682 110.056 40.5115 110.056 38.3687C110.056 36.206 111.63 34.6277 113.511 34.6277C115.364 34.6277 116.825 36.206 116.825 38.3687C116.825 40.5115 115.364 42.0682 113.511 42.0682ZM149.09 26.0744H142.563V44.1118H145.284V37.2774H149.09C152.112 37.2774 155.077 35.1147 155.077 31.675C155.077 28.2371 152.105 26.0744 149.09 26.0744ZM149.161 34.7684H145.284V28.5834H149.161C151.193 28.5834 152.353 30.2518 152.353 31.675C152.353 33.0711 151.193 34.7684 149.161 34.7684ZM165.985 32.1764C164.019 32.1764 161.974 33.035 161.133 34.938L163.548 35.939C164.068 34.938 165.024 34.6133 166.034 34.6133C167.446 34.6133 168.878 35.452 168.9 36.9329V37.1223C168.408 36.8409 167.353 36.4242 166.056 36.4242C163.455 36.4242 160.804 37.8402 160.804 40.4827C160.804 42.8997 162.935 44.4563 165.33 44.4563C167.162 44.4563 168.172 43.6392 168.807 42.6886H168.9V44.0829H171.529V37.1638C171.529 33.9657 169.114 32.1764 165.985 32.1764ZM165.657 42.0609C164.767 42.0609 163.526 41.6244 163.526 40.5332C163.526 39.1371 165.073 38.6014 166.412 38.6014C167.61 38.6014 168.172 38.8629 168.9 39.2074C168.687 40.8777 167.233 42.0609 165.657 42.0609ZM181.106 32.5715L177.977 40.3907H177.884L174.65 32.5715H171.715L176.575 43.4985L173.802 49.5789H176.646L184.134 32.5715H181.106ZM156.572 44.1118H159.301V26.0744H156.572V44.1118Z" fill="white"/>
<path d="M15.7476 11.7004C15.3189 12.1442 15.0708 12.835 15.0708 13.7296V45.6415C15.0708 46.5361 15.3189 47.2269 15.7476 47.6707L15.8534 47.7681L33.9383 29.893V29.4709L15.8534 11.5958L15.7476 11.7004Z" fill="url(#paint0_linear)"/>
<path d="M39.9599 35.8542L33.9382 29.8929V29.4708L39.9672 23.5094L40.1021 23.587L47.242 27.6039C49.2796 28.7439 49.2796 30.6198 47.242 31.767L40.1021 35.7767L39.9599 35.8542Z" fill="url(#paint1_linear)"/>
<path d="M40.1022 35.7767L33.9383 29.6818L15.7476 47.6705C16.4243 48.374 17.528 48.4588 18.783 47.7553L40.1022 35.7767Z" fill="url(#paint2_linear)"/>
<path d="M40.1022 23.5873L18.783 11.6086C17.528 10.9124 16.4243 10.9972 15.7476 11.7006L33.9383 29.6821L40.1022 23.5873Z" fill="url(#paint3_linear)"/>
</g>
<defs>
<linearGradient id="paint0_linear" x1="32.3326" y1="45.9738" x2="8.11723" y2="21.484" gradientUnits="userSpaceOnUse">
<stop stop-color="#00A0FF"/>
<stop offset="0.0066" stop-color="#00A1FF"/>
<stop offset="0.2601" stop-color="#00BEFF"/>
<stop offset="0.5122" stop-color="#00D2FF"/>
<stop offset="0.7604" stop-color="#00DFFF"/>
<stop offset="1" stop-color="#00E3FF"/>
</linearGradient>
<linearGradient id="paint1_linear" x1="49.8953" y1="29.6798" x2="14.5837" y2="29.6798" gradientUnits="userSpaceOnUse">
<stop stop-color="#FFE000"/>
<stop offset="0.4087" stop-color="#FFBD00"/>
<stop offset="0.7754" stop-color="#FFA500"/>
<stop offset="1" stop-color="#FF9C00"/>
</linearGradient>
<linearGradient id="paint2_linear" x1="36.7505" y1="26.3686" x2="3.91245" y2="-6.84155" gradientUnits="userSpaceOnUse">
<stop stop-color="#FF3A44"/>
<stop offset="1" stop-color="#C31162"/>
</linearGradient>
<linearGradient id="paint3_linear" x1="11.1686" y1="58.2878" x2="25.8322" y2="43.4581" gradientUnits="userSpaceOnUse">
<stop stop-color="#32A071"/>
<stop offset="0.0685" stop-color="#2DA771"/>
<stop offset="0.4762" stop-color="#15CF74"/>
<stop offset="0.8009" stop-color="#06E775"/>
<stop offset="1" stop-color="#00F076"/>
</linearGradient>
<clipPath id="clip0">
<rect width="197.585" height="58.2874" fill="white" transform="translate(0.186768 0.365234)"/>
</clipPath>
</defs>
</svg>
