<svg id="svg-icons" height="40" viewBox="0 0 38 38" fill="none" xmlns="http://www.w3.org/2000/svg">
    <rect x="0.904755" y="0.904785" width="36.1905" height="36.1905" rx="4" fill="#2878B7" />
    <path d="M31.381 21.3721V29.4763H26.461V21.8663C26.461 19.9884 25.7435 18.7036 24.0011 18.7036C22.6686 18.7036 21.8486 19.5931 21.5411 20.3838C21.4386 20.6803 21.3361 21.0756 21.3361 21.5698V29.4763H16.4162C16.4162 29.4763 16.5187 16.6282 16.4162 15.3433H21.3361V17.32C21.9511 16.3317 23.1811 14.948 25.7435 14.948C28.921 14.948 31.381 17.0235 31.381 21.3721ZM11.2913 8.52393C9.65128 8.52393 8.5238 9.61108 8.5238 10.9947C8.5238 12.3784 9.54879 13.4655 11.1888 13.4655C12.9312 13.4655 13.9562 12.3784 13.9562 10.9947C14.0587 9.51225 13.0337 8.52393 11.2913 8.52393ZM8.8313 29.4763H13.7512V15.3433H8.8313V29.4763Z" fill="white" />
</svg>