<svg id="svg-icons" height="40" viewBox="0 0 40 40" fill="none" xmlns="http://www.w3.org/2000/svg">
    <path fill-rule="evenodd" clip-rule="evenodd" d="M20 0.952393C14.8271 0.952393 14.1783 0.974415 12.1467 1.06698C10.1193 1.15953 8.73452 1.48156 7.52321 1.95239C6.27053 2.439 5.20833 3.09049 4.1494 4.14942C3.09047 5.20834 2.43898 6.27055 1.95238 7.52323C1.48154 8.73483 1.15952 10.1194 1.06696 12.1467C0.974401 14.1783 0.952377 14.8271 0.952377 20C0.952377 25.1729 0.974401 25.8217 1.06696 27.8533C1.15952 29.8807 1.48154 31.2652 1.95238 32.4768C2.43898 33.7295 3.09047 34.7917 4.1494 35.8506C5.20833 36.9096 6.27053 37.5607 7.52321 38.0476C8.73482 38.5185 10.1193 38.8405 12.1467 38.9331C14.1783 39.0256 14.8271 39.0476 20 39.0476C25.1729 39.0476 25.8217 39.0256 27.8533 38.9331C29.8807 38.8405 31.2652 38.5185 32.4768 38.0476C33.7295 37.5607 34.7917 36.9096 35.8506 35.8506C36.9095 34.7917 37.5607 33.7295 38.0476 32.4768C38.5185 31.2652 38.8405 29.8807 38.933 27.8533C39.0256 25.8217 39.0476 25.1729 39.0476 20C39.0476 14.8271 39.0256 14.1783 38.933 12.1467C38.8405 10.1194 38.5185 8.73483 38.0476 7.52323C37.5607 6.27055 36.9095 5.20834 35.8506 4.14942C34.7917 3.09049 33.7295 2.4393 32.4768 1.95239C31.2652 1.48156 29.8807 1.15953 27.8533 1.06698C25.8217 0.974415 25.1729 0.952393 20 0.952393Z" fill="url(#paint0_radial)"></path>
    <path fill-rule="evenodd" clip-rule="evenodd" d="M29.34 12.3744C29.34 13.3213 28.5723 14.0887 27.6257 14.0887C26.679 14.0887 25.9114 13.3213 25.9114 12.3744C25.9114 11.4275 26.679 10.6601 27.6257 10.6601C28.5725 10.6601 29.34 11.4275 29.34 12.3744ZM20 24.7619C17.3701 24.7619 15.2382 22.63 15.2382 20.0001C15.2382 17.3702 17.3701 15.2382 20 15.2382C22.6299 15.2382 24.7618 17.3702 24.7618 20.0001C24.7618 22.63 22.6299 24.7619 20 24.7619ZM20 12.6641C15.9484 12.6641 12.6641 15.9485 12.6641 20.0001C12.6641 24.0516 15.9484 27.336 20 27.336C24.0516 27.336 27.3359 24.0516 27.3359 20.0001C27.3359 15.9485 24.0516 12.6641 20 12.6641ZM20 8.28846C23.8145 8.28846 24.2663 8.30297 25.7725 8.37172C27.1654 8.43534 27.9219 8.66793 28.4252 8.86369C29.092 9.12284 29.5679 9.43244 30.0679 9.93244C30.5679 10.4322 30.8775 10.9081 31.1366 11.5751C31.3321 12.0784 31.565 12.8349 31.6286 14.2278C31.6973 15.7342 31.7118 16.186 31.7118 20.0005C31.7118 23.815 31.6973 24.2668 31.6286 25.7731C31.565 27.1659 31.3324 27.9224 31.1366 28.4258C30.8775 29.0925 30.5679 29.5684 30.0679 30.0684C29.5681 30.5684 29.0922 30.878 28.4252 31.1371C27.9219 31.3327 27.1654 31.5655 25.7725 31.6291C24.2663 31.6979 23.8145 31.7124 20 31.7124C16.1853 31.7124 15.7335 31.6979 14.2272 31.6291C12.8344 31.5655 12.0779 31.3329 11.5745 31.1371C10.9078 30.878 10.4319 30.5684 9.93192 30.0684C9.43214 29.5686 9.12232 29.0927 8.86316 28.4258C8.66763 27.9224 8.43482 27.1659 8.3712 25.7731C8.30245 24.2666 8.28794 23.8148 8.28794 20.0005C8.28794 16.186 8.30245 15.7342 8.3712 14.2278C8.43482 12.8349 8.66741 12.0784 8.86316 11.5751C9.12232 10.9083 9.43191 10.4324 9.93192 9.93244C10.4317 9.43244 10.9076 9.12284 11.5745 8.86369C12.0779 8.66815 12.8344 8.43534 14.2272 8.37172C15.7337 8.30297 16.1855 8.28846 20 8.28846ZM20 5.71436C16.1203 5.71436 15.6337 5.73087 14.11 5.80029C12.5895 5.86971 11.5509 6.11123 10.6424 6.46436C9.7029 6.82931 8.90624 7.31793 8.11205 8.11212C7.31785 8.90632 6.82923 9.70297 6.46428 10.6425C6.11115 11.5512 5.86964 12.5896 5.80022 14.1101C5.7308 15.6338 5.71428 16.1204 5.71428 20.0001C5.71428 23.8798 5.7308 24.3664 5.80022 25.89C5.86964 27.4106 6.11115 28.449 6.46428 29.3577C6.82923 30.2972 7.31785 31.0938 8.11205 31.888C8.90624 32.6822 9.7029 33.1706 10.6424 33.5358C11.5511 33.8889 12.5895 34.1304 14.11 34.1999C15.6337 34.2693 16.1203 34.2858 20 34.2858C23.8797 34.2858 24.3663 34.2693 25.89 34.1999C27.4105 34.1304 28.4489 33.8889 29.3576 33.5358C30.2971 33.1706 31.0938 32.6822 31.888 31.888C32.6821 31.0938 33.1705 30.2972 33.5357 29.3577C33.8888 28.449 34.1304 27.4106 34.1998 25.89C34.2692 24.3664 34.2857 23.8798 34.2857 20.0001C34.2857 16.1204 34.2692 15.6338 34.1998 14.1101C34.1304 12.5896 33.8888 11.5512 33.5357 10.6425C33.1705 9.70297 32.6821 8.90632 31.888 8.11212C31.0938 7.31793 30.2971 6.82953 29.3576 6.46436C28.4489 6.11123 27.4105 5.86971 25.89 5.80029C24.3663 5.73087 23.8797 5.71436 20 5.71436Z" fill="white"></path>
    <defs>
        <radialGradient id="paint0_radial" cx="0" cy="0" r="1" gradientUnits="userSpaceOnUse" gradientTransform="translate(6.6402 -5.43164) scale(48.6762)">
            <stop stop-color="#FFB140"></stop>
            <stop offset="0.2559" stop-color="#FF5445"></stop>
            <stop offset="0.599" stop-color="#FC2B82"></stop>
            <stop offset="1" stop-color="#8E40B7"></stop>
        </radialGradient>
    </defs>
</svg>