<svg width="217" height="60" viewBox="0 0 217 60" fill="none" xmlns="http://www.w3.org/2000/svg">
<path d="M33.5305 14.8015H25.6344L15.0991 40.7561H21.8573L29.5839 20.7106L37.3076 40.7561H44.0658L33.5305 14.8015Z" fill="#37A134"/>
<path d="M26.727 59.8325L26.6725 59.8265H26.6695H26.6664H26.6604H26.6574C22.6866 59.4264 18.8672 58.2234 15.423 56.3386C8.77076 52.7022 3.50465 46.5265 1.20451 38.678C-1.09563 30.8295 -3.98708e-05 22.7871 3.63176 16.1325C5.49911 12.7052 8.03834 9.64767 11.1314 7.17191L11.192 7.12039C11.195 7.11736 11.198 7.11736 11.201 7.11433C15.7801 3.35676 21.3852 0.853726 27.4594 0.0658469C27.4897 0.0628166 27.6894 0.0416045 27.7197 0.0385742L30.268 6.31433C30.2286 6.31736 30.0228 6.33251 29.9865 6.33554C24.5691 6.67191 19.5451 8.7113 15.5017 11.9658C15.4381 12.0174 15.3746 12.0689 15.311 12.1204C15.2111 12.2022 15.1082 12.2871 15.0084 12.3719L15.0023 12.378L14.9963 12.384L14.9902 12.3871L14.9872 12.3931L14.9811 12.3961C14.9539 12.4174 14.9297 12.4416 14.9024 12.4628C12.6084 14.3537 10.7198 16.6598 9.31553 19.2325C6.4797 24.4325 5.62622 30.7143 7.42396 36.8507C9.2217 42.9871 13.3317 47.8083 18.5191 50.6477C21.2672 52.1507 24.3209 53.0961 27.4927 53.3901C34.4052 53.9568 40.9182 51.7325 45.8999 47.6416C46.142 47.4446 46.3811 47.2416 46.6171 47.0325L49.1685 53.3174C42.9823 58.0628 35.0771 60.581 26.727 59.8325Z" fill="#37A134"/>
<path d="M91.5362 10.3592H86.5728V39.4198H91.5362V10.3592ZM98.4245 16.1713C100.219 16.1713 101.557 14.8713 101.557 13.0349C101.557 11.238 100.219 9.89858 98.4245 9.89858C96.6298 9.89858 95.2164 11.238 95.2164 13.0349C95.2164 14.8713 96.5935 16.1713 98.4245 16.1713ZM100.87 18.6562H95.8671V39.4198H100.87V18.6562ZM115.778 14.0289C116.695 14.0289 117.803 14.2986 119.102 14.8713L120.666 10.9713C118.832 10.0137 116.962 9.55615 115.091 9.55615C110.164 9.55615 106.841 12.4622 106.841 17.7016V18.6562H103.557V22.8622H106.841V39.4198H111.808V22.8622H118.3V18.6562H111.808V17.8168C111.808 15.3683 113.221 14.0289 115.778 14.0289Z" fill="black"/>
<path d="M77.6658 29.0198C77.6658 30.8168 77.0938 32.3077 75.9498 33.5319C74.8028 34.7531 73.0262 35.3652 71.2315 35.3652C69.4368 35.3652 67.975 34.7652 66.84 33.5319C65.7233 32.3168 65.1603 30.8168 65.1603 29.0198C65.1603 27.2592 65.7233 25.7592 66.84 24.544C67.975 23.3107 69.4368 22.7107 71.2315 22.7107C73.0262 22.7107 74.8028 23.3198 75.9498 24.544C77.0938 25.7683 77.6658 27.2592 77.6658 29.0198ZM77.5539 20.5834C75.7016 18.9865 73.4287 18.1592 70.7927 18.1592C67.8539 18.1592 65.0453 19.1925 63.0963 21.2198C61.1502 23.244 60.1938 25.844 60.1938 28.941C60.1938 32.041 61.1502 34.6774 63.0963 36.7804C65.0453 38.8834 67.8146 39.9168 70.7927 39.9168C73.5044 39.9168 75.517 39.1319 77.5539 37.5016V39.4198H82.2873V18.6561H77.5539V20.5834Z" fill="black"/>
<path d="M151.839 18.4318C148.631 18.4318 145.768 19.9621 144.391 22.2561C143.208 19.847 140.687 18.4318 137.899 18.4318C135.188 18.4318 132.972 19.8076 131.753 21.9894V18.9682H128.429V39.4258H131.828V27.9531C131.828 24.1288 134.119 21.6046 137.442 21.6046C140.611 21.6046 142.521 23.9379 142.521 27.8773V39.4258H145.92V27.8773C145.92 24.1682 148.171 21.6046 151.494 21.6046C154.587 21.6046 156.537 23.8227 156.537 27.8015V39.4258H159.935V27.3046C159.935 24.5894 159.209 22.447 157.759 20.8409C156.307 19.2349 154.321 18.4318 151.839 18.4318ZM163.349 29.1773C163.349 32.1985 164.342 34.7591 166.367 36.8258C168.391 38.8894 170.949 39.9227 174.042 39.9227C177.135 39.9227 179.695 38.8894 181.717 36.8258C183.742 34.7591 184.734 32.1985 184.734 29.1773C184.734 26.1955 183.705 23.6712 181.681 21.6046C179.656 19.5015 177.135 18.4712 174.042 18.4712C170.949 18.4712 168.391 19.5015 166.367 21.6046C164.342 23.6712 163.349 26.1955 163.349 29.1773ZM181.299 29.1773C181.299 31.2803 180.609 33.0773 179.199 34.5682C177.786 36.0591 176.067 36.7864 174.042 36.7864C172.017 36.7864 170.298 36.0591 168.888 34.5682C167.474 33.0773 166.784 31.2803 166.784 29.1773C166.784 27.1106 167.474 25.3531 168.888 23.8621C170.298 22.3712 172.017 21.6046 174.042 21.6046C176.067 21.6046 177.786 22.3712 179.199 23.8621C180.609 25.3531 181.299 27.1106 181.299 29.1773ZM198.883 18.4712C195.866 18.4712 193.424 19.6924 191.55 22.1046V10.4773H188.151V39.4258H191.55V36.4046C193.384 38.7379 195.83 39.9227 198.844 39.9227C201.786 39.9227 204.201 38.8985 206.141 36.8258C208.096 34.7318 209.08 32.1985 209.08 29.2167C209.08 26.2318 208.087 23.7076 206.141 21.6046C204.192 19.5015 201.786 18.4712 198.883 18.4712ZM198.502 36.7106C196.362 36.7106 194.643 35.9834 193.345 34.5318C192.046 33.0773 191.399 31.2803 191.399 29.1773C191.399 27.0743 192.046 25.3137 193.345 23.8621C194.643 22.4076 196.362 21.6834 198.502 21.6834C200.602 21.6834 202.3 22.4258 203.62 23.8621C204.936 25.2955 205.605 27.0743 205.605 29.1773C205.605 31.2803 204.945 33.0682 203.62 34.5318C202.309 35.9743 200.602 36.7106 198.502 36.7106ZM214.518 15.9864C215.892 15.9864 217 14.8773 217 13.4621C217 12.047 215.892 10.9743 214.518 10.9743C213.029 10.9743 211.958 12.047 211.958 13.4621C211.958 14.8773 213.029 15.9864 214.518 15.9864ZM216.159 18.9682H212.76V39.4258H216.159V18.9682Z" fill="black"/>
</svg>
