<svg id="svg-icons" height="40" viewBox="0 0 38 38" fill="none" xmlns="http://www.w3.org/2000/svg">
    <rect x="0.904663" y="0.905029" width="36.1905" height="36.1905" rx="7" fill="#F99400" />
    <path fillRule="evenodd" clipRule="evenodd" d="M16.2477 24.9592C15.203 24.7165 14.2291 24.3657 13.3034 23.8893C12.9719 23.7181 12.6456 23.5347 12.3289 23.3377C11.3949 22.7545 11.1046 21.5514 11.6659 20.6258C12.2433 19.675 13.4399 19.3661 14.3952 19.9454C15.335 20.5138 16.3308 20.927 17.4128 21.1221C19.5422 21.5044 21.5428 21.1523 23.4069 20.0561C23.7874 19.8321 24.1717 19.6564 24.6255 19.6589C25.5054 19.6641 26.2759 20.2273 26.5315 21.0648C26.7883 21.9087 26.4684 22.8221 25.7211 23.3029C24.5566 24.0522 23.2956 24.58 21.9528 24.9109C21.8949 24.9244 21.8383 24.9411 21.7571 24.9624C21.8119 25.0216 21.8543 25.0679 21.8994 25.113C23.0928 26.3064 24.2869 27.4979 25.479 28.6933C26.1761 29.3923 26.3229 30.3514 25.8601 31.1509C25.1939 32.3025 23.6619 32.4937 22.7021 31.5397C21.5125 30.3566 20.3294 29.1683 19.1444 27.9833C19.1019 27.9408 19.062 27.8951 18.9674 27.7921C18.9281 27.8623 18.9068 27.9305 18.8631 27.9743C17.6754 29.1664 16.4878 30.3566 15.295 31.5436C14.4769 32.3598 13.2275 32.3546 12.4357 31.541C11.7116 30.7969 11.691 29.615 12.3913 28.8342C12.4859 28.7274 12.5889 28.627 12.6893 28.5259C13.8287 27.3859 14.9674 26.2479 16.1068 25.1072C16.146 25.0673 16.1866 25.0229 16.2477 24.9592Z" fill="white" />
    <path fillRule="evenodd" clipRule="evenodd" d="M19.0031 5.84766C22.7398 5.84766 25.7884 8.89751 25.7877 12.6342C25.7871 16.3754 22.7675 19.4207 19.0057 19.422C15.2227 19.4259 12.2185 16.376 12.2127 12.6471C12.2063 8.90523 15.2336 5.85796 19.0031 5.84766ZM21.8077 12.6406C21.809 11.0945 20.5583 9.83344 19.0199 9.82958C17.4608 9.82572 16.1908 11.0758 16.1882 12.6155C16.1857 14.1578 17.4364 15.442 18.9458 15.4433C20.5454 15.4446 21.8064 14.21 21.8077 12.6406Z" fill="white" />
</svg>