<svg id="svg-icons" height="40" viewBox="0 0 40 40" fill="none" xmlns="http://www.w3.org/2000/svg">
    <path d="M20 39.0476C30.5197 39.0476 39.0476 30.5197 39.0476 20C39.0476 9.4803 30.5197 0.952393 20 0.952393C9.48029 0.952393 0.952377 9.4803 0.952377 20C0.952377 30.5197 9.48029 39.0476 20 39.0476Z" fill="#1E96C8" />
    <path d="M29.1101 11.5356C29.1359 11.5184 29.6859 11.2692 30.1758 11.5958C30.554 11.8536 30.7345 12.3435 30.6056 12.8162C29.4109 18.4542 28.2077 24.0922 27.013 29.7303C27.0044 29.799 26.9357 30.3405 26.4458 30.6327C26.1192 30.8304 25.7067 30.8562 25.3457 30.7015C25.2511 30.6585 25.1566 30.5983 25.0707 30.5382C22.2345 28.4067 19.3982 26.2753 16.562 24.1352L26.4544 15.2398C26.4802 15.1969 26.5919 15.0594 26.5489 14.9734C26.5145 14.9047 26.3942 14.8789 26.2309 14.9047C26.0762 14.9218 25.9301 14.982 25.8012 15.068C21.736 17.6291 17.6793 20.1903 13.6141 22.7515L8.0878 21.0756C7.85574 20.9037 7.52915 20.6286 7.55493 20.302C7.58072 20.0012 7.89872 19.795 8.01904 19.7176C9.01601 19.0988 25.148 13.0224 29.1101 11.5356Z" fill="white" />
    <path d="M16.5621 24.1438L16.2097 29.6099C16.3387 29.6013 16.5277 29.5842 16.7426 29.4896C17.0004 29.3779 17.1723 29.2146 17.2669 29.1115C18.1177 28.2692 18.9686 27.4269 19.8195 26.5847L16.5621 24.1438Z" fill="#A9C9DD" />
    <path d="M16.2012 29.6098C16.0551 29.6098 15.8832 29.5841 15.7457 29.4723C15.5824 29.3348 15.5308 29.1372 15.5222 29.0856C15.4277 28.6988 14.6714 26.1978 13.6142 22.76L25.8013 15.0764C25.8529 15.0421 25.9216 14.9991 26.0162 14.9647C26.1709 14.9046 26.4631 14.8358 26.5405 14.9475C26.5748 14.9905 26.5576 15.0593 26.5491 15.085C26.5491 15.085 26.5319 15.171 26.4545 15.2483C26.3514 15.3515 22.2088 19.0729 16.5622 24.1437L16.2012 29.6098Z" fill="#C8DAEA" />
</svg>