<svg id="svg-icons" height="40" viewBox="0 0 40 40" fill="none" xmlns="http://www.w3.org/2000/svg">
    <g clip-path="url(#clip0)">
        <rect width="64" height="64" fill="black"></rect>
        <path d="M17.5186 17.7244V16.774C17.1744 16.7219 16.8268 16.6934 16.4783 16.6887C13.1052 16.6823 10.1198 18.7762 9.10663 21.8583C8.09345 24.9404 9.2892 28.2968 12.0571 30.1424C9.15283 27.164 9.3185 22.4933 12.4268 19.7104C13.8118 18.4715 15.6243 17.7645 17.5186 17.7244Z" fill="#25F4EE"></path>
        <path d="M17.7057 28.4848C19.5911 28.4826 21.1408 27.0593 21.2242 25.2536V9.14445H24.2953C24.2324 8.80804 24.2026 8.46673 24.2062 8.125H20.0059V24.218C19.936 26.0323 18.3819 27.4696 16.4874 27.4729C15.9216 27.4686 15.3638 27.3347 14.8622 27.0841C15.1874 27.5158 15.6145 27.8677 16.1087 28.1111C16.6029 28.3545 17.1501 28.4826 17.7057 28.4848ZM30.0306 14.6099V13.7147C28.9002 13.7147 27.7946 13.395 26.8536 12.7957C27.6785 13.7154 28.7938 14.3523 30.0306 14.6099Z" fill="#25F4EE"></path>
        <path d="M26.8548 12.7967C25.9271 11.7848 25.4158 10.4837 25.4167 9.13684H24.2953C24.4397 9.88162 24.7412 10.5903 25.1813 11.2196C25.6213 11.8489 26.1908 12.3856 26.8548 12.7967ZM16.4784 20.7147C14.531 20.7244 12.9599 22.2449 12.9701 24.111C12.9733 24.7236 13.1502 25.3238 13.4819 25.8475C13.8136 26.3712 14.2877 26.7986 14.8533 27.0841C13.7139 25.5765 14.0655 23.4685 15.6388 22.3756C16.24 21.9584 16.9635 21.7342 17.7057 21.7352C18.0585 21.7395 18.409 21.7925 18.746 21.8918V17.7957C18.4022 17.746 18.054 17.7201 17.7057 17.7179H17.5187V20.8324C17.1794 20.7438 16.8289 20.705 16.4784 20.7147Z" fill="#FE2C55"></path>
        <path d="M30.0306 14.6099V17.7244C27.9381 17.7205 25.9 17.0858 24.2051 15.9101V24.0927C24.1961 28.1759 20.7395 31.4815 16.4783 31.4815C14.8958 31.4844 13.3514 31.0165 12.0582 30.1424C14.958 33.1305 19.8368 33.3012 22.9564 30.5225C23.7324 29.8313 24.3514 28.9942 24.7747 28.0635C25.198 27.1328 25.4165 26.1284 25.4166 25.1132V16.9533C27.1174 18.1207 29.1578 18.747 31.25 18.7438V14.7351C30.8397 14.733 30.4318 14.6919 30.0306 14.6099Z" fill="#FE2C55"></path>
        <path d="M24.2051 24.0938V15.9112C25.9055 17.0795 27.9462 17.7059 30.0385 17.7017V14.5872C28.8024 14.3368 27.6847 13.7084 26.8536 12.7967C26.1899 12.3852 25.6207 11.8485 25.1807 11.2193C24.7406 10.59 24.439 9.88147 24.2942 9.13684H21.2231V25.2536C21.1431 27.1186 19.5021 28.5679 17.5558 28.4923C17.0233 28.4716 16.5027 28.3355 16.033 28.0942C15.5634 27.8529 15.1569 27.5127 14.8442 27.0992C13.121 26.2299 12.4595 24.1867 13.3667 22.5354C13.6645 21.9933 14.1105 21.539 14.657 21.2211C15.2036 20.9032 15.83 20.7338 16.4694 20.7309C16.8221 20.7341 17.1726 20.786 17.5096 20.8864V17.7255C13.2563 17.7946 9.86626 21.2017 9.93839 25.2774C9.97101 27.1231 10.7241 28.89 12.0493 30.2299C13.3551 31.0752 14.9017 31.5131 16.4773 31.4837C20.7396 31.4826 24.1961 28.177 24.2051 24.0938Z" fill="white"></path>
    </g>
    <defs>
        <clipPath id="clip0">
            <rect width="38" height="38" rx="6" fill="white"></rect>
        </clipPath>
    </defs>
</svg>