<svg id="svg-icons" height="40" viewBox="0 0 38 38" fill="none" xmlns="http://www.w3.org/2000/svg">
    <rect x="0.904785" y="0.904785" width="36.1905" height="36.1905" rx="3" fill="#54769B" />
    <path d="M19.8469 26.6192C20.6935 26.6192 20.6935 25.434 20.6935 24.9261C20.6935 24.0795 21.54 23.233 22.3866 23.233C23.2331 23.233 24.6723 24.6721 25.7728 25.7726C26.6194 26.6192 26.6194 26.6192 27.4659 26.6192C28.3125 26.6192 30.0056 26.6192 30.0056 26.6192C30.0056 26.6192 31.6987 26.5345 31.6987 24.9261C31.6987 24.4181 31.1062 23.4869 29.1591 21.5398C27.4659 19.8467 26.6194 20.6933 29.1591 17.307C30.6829 15.1906 31.8681 13.3282 31.6987 12.8203C31.5294 12.3123 27.212 11.4658 26.6194 12.2277C24.9263 14.7673 24.5876 15.3599 24.0797 16.4605C23.2331 18.1536 23.1485 19.0002 22.3866 19.0002C21.6247 19.0002 21.54 17.3917 21.54 16.4605C21.54 13.6668 21.9633 11.7197 20.6935 11.3811C20.6935 11.3811 19.0003 11.3811 18.1538 11.3811C16.7993 11.3811 15.6141 12.2277 15.6141 12.2277C15.6141 12.2277 14.5982 13.0742 14.7675 13.0742C15.0215 13.0742 16.4606 12.7356 16.4606 13.9208C16.4606 14.7673 16.4606 15.6139 16.4606 15.6139C16.4606 15.6139 16.4606 19.0002 15.6141 19.0002C14.7675 19.0002 13.0744 15.6139 11.3813 13.0742C10.704 12.0584 10.5347 12.2277 9.68816 12.2277C8.75694 12.2277 7.99504 12.2277 7.14848 12.2277C6.30192 12.2277 6.21726 12.7356 6.30192 13.0742C7.99504 17.307 9.18023 19.9314 12.3972 23.3176C15.3601 26.3652 17.3072 26.5345 19.0003 26.6192C19.4236 26.6192 19.0003 26.6192 19.8469 26.6192Z" fill="white" />
</svg>