<svg width="98" height="36" viewBox="0 0 98 36" fill="none" xmlns="http://www.w3.org/2000/svg">
<path d="M46.7086 17.4088C46.7086 18.4671 46.3382 19.3667 45.6503 20.1075C44.9625 20.8483 43.9042 21.2186 42.8459 21.2186C41.7876 21.2186 40.8881 20.8483 40.2002 20.1075C39.5652 19.3667 39.1948 18.4671 39.1948 17.4088C39.1948 16.3505 39.5652 15.451 40.2002 14.7102C40.8881 13.9694 41.7876 13.599 42.8459 13.599C43.9042 13.599 45.0154 13.9694 45.7033 14.7102C46.3911 15.451 46.7086 16.3505 46.7086 17.4088ZM46.6557 12.3291C45.5445 11.3766 44.1687 10.9004 42.5813 10.9004C40.8352 10.9004 39.1419 11.5354 37.9249 12.7524C36.7608 13.9694 36.1787 15.5568 36.1787 17.4088C36.1787 19.2608 36.7608 20.8482 37.9249 22.1182C39.089 23.3881 40.7822 23.9702 42.5813 23.9702C44.2217 23.9702 45.4387 23.494 46.6557 22.5415V23.7056H49.5131V11.165H46.6557V12.3291Z" fill="black"/>
<path fill-rule="evenodd" clip-rule="evenodd" d="M52.1588 23.8644C53.6404 23.8644 54.8045 23.2295 55.5982 22.0124C55.9157 21.5362 56.1803 20.7954 56.3919 20.3192C56.6036 19.79 56.8153 18.7847 56.9211 18.3084C56.974 18.0968 57.0798 17.7264 57.1327 17.1973L57.2915 16.139C57.2915 15.9273 57.3973 15.5569 57.4502 14.9749L57.609 13.9166H60.4134V23.7057H63.3766V11.165H55.0162L54.9104 12.0646C54.6458 14.4457 54.4341 16.2977 54.1696 17.6206C53.9579 18.8905 53.5875 19.8959 53.1113 20.5838C52.635 21.2187 52.053 21.5362 51.2593 21.5362L51.418 23.7586C51.7355 23.8115 52.0001 23.8644 52.1588 23.8644Z" fill="black"/>
<path d="M90.0454 13.4932C92.9027 13.4932 94.596 15.0277 94.596 17.4089C94.596 19.8429 92.8498 21.3774 90.0454 21.3774V13.4932ZM82.6374 17.4089C82.6374 14.9748 84.3306 13.4932 87.188 13.4932V21.3774C84.3836 21.3245 82.6374 19.8958 82.6374 17.4089ZM97.5063 17.4089C97.5063 15.451 96.8184 13.8636 95.4426 12.6995C94.0668 11.5354 92.2678 10.9004 90.0454 10.8475V7.51392H87.188V10.8475C84.9127 10.9004 83.1136 11.5354 81.7908 12.6995C80.415 13.8636 79.78 15.451 79.78 17.4089C79.78 19.3667 80.415 20.9012 81.7908 22.0653C83.1665 23.2294 84.9656 23.8115 87.188 23.9173V27.2509H90.0454V23.9173C92.3207 23.8644 94.1198 23.2294 95.4426 22.0653C96.8184 20.9541 97.5063 19.4196 97.5063 17.4089Z" fill="black"/>
<path d="M67.7684 23.6528L74.806 15.8744V23.6528H77.6634V11.165H75.8114L68.7738 19.0492V11.165H65.8635V23.6528H67.7684Z" fill="black"/>
<path fill-rule="evenodd" clip-rule="evenodd" d="M16.1206 35.9201C13.6905 35.6922 11.4122 35.0088 9.28588 33.8697C5.26101 31.6674 2.14743 27.9463 0.704556 23.2379C-0.662381 18.5296 0.0210872 13.6694 2.22337 9.72044C5.10913 4.40457 10.6528 0.759409 16.5762 0H16.7281L18.2469 3.79705C18.171 3.79705 18.095 3.79705 18.095 3.79705C13.0829 4.10081 8.07083 7.06251 5.64072 11.543C3.89407 14.6566 3.43843 18.4536 4.5016 22.0988C5.56478 25.8199 8.07083 28.7057 11.1844 30.3764C12.8551 31.2877 14.6777 31.8192 16.5762 32.0471C20.753 32.4268 24.6259 31.0598 27.6636 28.6297C27.8155 28.4778 27.9673 28.4019 28.1192 28.25L29.638 32.0471C25.9169 34.8569 21.1327 36.3757 16.1206 35.9201ZM20.2214 8.88509H15.4371L9.134 24.453H13.2348L17.8672 12.3784L22.4996 24.453H26.6004L20.2214 8.88509Z" fill="#39B980"/>
</svg>
